<svg version="1" xmlns="http://www.w3.org/2000/svg" width="666.667" height="666.667" viewBox="0 0 500.000000 500.000000"><path d="M243.9 90.4c-.2.2-5 .6-10.6 1-38.6 2.4-68.4 17.2-84.4 41.9-3.8 5.8-9.3 18.2-10.3 22.7-.3 1.4-.8 3.6-1.2 5-2.2 8.6-.7 34.6 2.5 41.5.5 1.1 1.7 4 2.6 6.4 4.1 11.1 17.7 27.6 28.8 35.3 13.3 9 38 18.9 60.7 24.3 6.8 1.6 38.3 9.9 45.4 12 18.8 5.5 30.4 13.8 33.8 24.1 2.3 6.9 1.7 16.8-1.4 23.6-3.2 6.8-11.5 15.9-18.1 19.7-12.4 7-31.4 9.9-51.2 7.8-14.7-1.5-28.9-8.4-38-18.6-6.5-7.2-14.1-23.9-16.1-35.4l-.7-3.9-9.4.7c-5.2.3-10.4.8-11.6 1.1-1.2.2-5.8.7-10.2 1-4.4.3-9 .7-10.3.9-1.2.2-5.7.7-10 1-4.2.4-8.1 1.1-8.6 1.5-.5.5 0 5.7 1.4 12.5 9.4 48.8 37.4 78.5 83.5 88.6 7.3 1.5 8 1.7 14.5 2.4 3.6.4 7.6.9 9 1.1 3.6.5 34 .5 37.5 0 1.7-.3 5.9-.7 9.5-1.1 19.7-1.9 40-8.9 55.8-19.3 5.2-3.4 20.2-17.7 20.2-19.3 0-.4.6-1.4 1.4-2.1 2.4-2.4 9.4-16.1 11.7-22.8 3.8-11.4 4.8-18.6 4.5-33.5-.2-7.7-.6-15.1-1-16.5-.3-1.4-1.1-4.8-1.7-7.5-1.7-7.4-6.7-18.2-11.5-25-16.8-24-40.3-36-98.4-49.9-21.7-5.2-37.4-10.2-47.7-15.2-13.6-6.5-18.8-13.7-18.6-25.6.3-16.3 21.8-28.1 51.3-28.2 34.3 0 50.1 11.6 56.5 41.7l.5 2.7 9.3-.5c5-.2 15.7-.7 23.7-1.1 13.8-.6 26.2-1.1 28.6-1.3 1-.1.5-8.8-1-16.6-.3-1.7-.8-4.3-1.1-5.8-.8-3.9-4.8-14.3-7.8-20.2-16.1-31.5-51.4-49.6-98.6-50.4-6.3-.1-11.8-.4-12.1-.6-.4-.3-.9-.3-1.1-.1z"/></svg>